<?xml version="1.0" encoding="utf-8"?>
<!-- Generator: Adobe Illustrator 24.0.0, SVG Export Plug-In . SVG Version: 6.00 Build 0)  -->
<svg version="1.1" xmlns="http://www.w3.org/2000/svg" xmlns:xlink="http://www.w3.org/1999/xlink" x="0px" y="0px"
	 viewBox="0 0 12 12" style="enable-background:new 0 0 12 12;" xml:space="preserve">
<style type="text/css">
	.st0{fill:#FFFFFF;}
	.st1{fill:#172D1B;}
	.st2{fill:none;stroke:#1D1D1B;stroke-width:0.25;stroke-miterlimit:10;}
	.st3{fill:#182D1C;}
	.st4{fill:#08593A;}
	.st5{fill:#D3D9DA;}
	.st6{fill:none;stroke:#182D1C;stroke-width:1.4907;stroke-miterlimit:10;}
	.st7{fill:none;stroke:#172D1B;stroke-width:1.4907;stroke-miterlimit:10;}
	.st8{fill:none;stroke:#FF0000;stroke-width:3;stroke-miterlimit:10;}
	.st9{fill:none;stroke:#D3D9DA;stroke-width:2;stroke-linecap:round;stroke-linejoin:round;stroke-miterlimit:10;}
	.st10{fill:#FFFF00;}
	.st11{display:none;}
	.st12{display:inline;}
	.st13{display:inline;fill:none;stroke:#1D1D1B;stroke-miterlimit:10;}
	.st14{display:inline;fill:none;stroke:#1D1D1B;stroke-width:0.25;stroke-miterlimit:10;}
	.st15{display:inline;fill:none;stroke:#1D1D1B;stroke-width:0.1766;stroke-miterlimit:10;}
	.st16{display:inline;fill:none;stroke:#1D1D1B;stroke-width:0.1767;stroke-miterlimit:10;}
	.st17{fill:none;stroke:#1D1D1B;stroke-miterlimit:10;}
	.st18{display:inline;fill:none;}
</style>
<g id="bg">
</g>
<g id="Textos">
	<g>
		<path class="st3" d="M11,11.72H0.16V0.88h10.45c0.34-0.23,0.66-0.43,0.97-0.59l0.26,0.37C11.59,0.85,11.31,1.08,11,1.35V11.72z
			 M9.91,2.44c-0.74,0.79-1.56,1.82-2.44,3.1C6.59,6.81,5.93,7.9,5.5,8.8L4.96,9.17C4.51,9.48,4.2,9.72,4.04,9.87
			c-0.06-0.23-0.2-0.61-0.42-1.13L3.42,8.27C3.13,7.58,2.85,7.08,2.6,6.75C2.35,6.42,2.07,6.21,1.76,6.11
			c0.53-0.56,1.01-0.84,1.46-0.84c0.37,0,0.79,0.51,1.25,1.53l0.23,0.51c0.86-1.45,2.21-3.08,4.03-4.88l0.5-0.48L1.24,1.97v8.66
			h8.67V2.44z"/>
	</g>
</g>
<g id="Space">
</g>
<g id="AUREA" class="st11">
</g>
<g id="Grid">
</g>
</svg>
