<?xml version="1.0" encoding="utf-8"?>
<!-- Generator: Adobe Illustrator 24.0.1, SVG Export Plug-In . SVG Version: 6.00 Build 0)  -->
<svg version="1.1" xmlns="http://www.w3.org/2000/svg" xmlns:xlink="http://www.w3.org/1999/xlink" x="0px" y="0px"
	 viewBox="0 0 188 192" style="enable-background:new 0 0 188 192;" xml:space="preserve">
<style type="text/css">
	.st0{fill:#08593A;}
	.st1{fill:#A77F38;}
	.st2{fill:none;stroke:#1D1D1B;stroke-width:0.25;stroke-miterlimit:10;}
	.st3{fill:none;stroke:#FFFFFF;stroke-width:3;stroke-miterlimit:10;}
	.st4{fill:#172D1B;}
	.st5{fill:url(#SVGID_33_);}
	.st6{fill:url(#SVGID_34_);}
	.st7{fill:url(#SVGID_35_);}
	.st8{fill:url(#SVGID_36_);}
	.st9{fill:url(#SVGID_37_);}
	.st10{fill:url(#SVGID_38_);}
	.st11{fill:url(#SVGID_39_);}
	.st12{fill:url(#SVGID_40_);}
	.st13{fill:url(#SVGID_41_);}
	.st14{fill:#172D1B;stroke:#172D1B;stroke-width:0.4841;stroke-miterlimit:10;}
	.st15{fill:none;stroke:#08593A;stroke-width:0.3123;stroke-miterlimit:10;}
	.st16{fill:none;stroke:#08593A;stroke-width:0.3258;stroke-miterlimit:10;}
	.st17{fill:none;stroke:#172D1B;stroke-width:0.3123;stroke-miterlimit:10;}
	.st18{fill:none;stroke:#08593A;stroke-width:0.9173;stroke-miterlimit:10;}
	.st19{fill:none;stroke:#08593A;stroke-width:0.4403;stroke-miterlimit:10;}
	.st20{fill:none;stroke:#08593A;stroke-width:0.75;stroke-miterlimit:10;}
	.st21{fill:none;stroke:#08593A;stroke-width:0.742;stroke-miterlimit:10;}
	.st22{fill:none;stroke:#08593A;stroke-width:0.7087;stroke-miterlimit:10;}
	.st23{fill:none;stroke:#08593A;stroke-width:0.7011;stroke-miterlimit:10;}
	.st24{fill:none;stroke:#08593A;stroke-width:0.7355;stroke-miterlimit:10;}
	.st25{fill:none;stroke:#08593A;stroke-width:0.7277;stroke-miterlimit:10;}
	.st26{fill:none;stroke:#08593A;stroke-width:1.1857;stroke-miterlimit:10;}
	.st27{fill:none;stroke:#08593A;stroke-width:1.1731;stroke-miterlimit:10;}
	.st28{fill:none;stroke:#08593A;stroke-miterlimit:10;}
	.st29{fill:none;stroke:#FF0000;stroke-width:1.8492;stroke-miterlimit:10;}
	.st30{display:none;}
	.st31{display:inline;}
	.st32{display:none;fill:none;stroke:#08593A;stroke-width:0.7315;stroke-miterlimit:10;}
	.st33{fill:none;stroke:#08593A;stroke-width:0.7315;stroke-miterlimit:10;}
	.st34{fill:none;stroke:#08593A;stroke-width:0.5388;stroke-miterlimit:10;}
	.st35{fill:none;stroke:#08593A;stroke-width:0.3853;stroke-miterlimit:10;}
	.st36{fill:#D3D9DA;}
	.st37{fill:none;stroke:#08593A;stroke-width:0.4378;stroke-miterlimit:10;}
	.st38{fill:none;stroke:#08593A;stroke-width:0.6617;stroke-miterlimit:10;}
	.st39{fill:#182D1C;}
	.st40{fill:none;stroke:#08593A;stroke-width:0.4278;stroke-miterlimit:10;}
	.st41{fill:none;stroke:#08593A;stroke-width:0.4359;stroke-miterlimit:10;}
	.st42{fill:none;stroke:#08593A;stroke-width:0.5577;stroke-miterlimit:10;}
	.st43{fill:none;stroke:#08593A;stroke-width:0.621;stroke-miterlimit:10;}
	.st44{fill:none;stroke:#08593A;stroke-width:0.5203;stroke-miterlimit:10;}
	.st45{opacity:0.8;fill:#FFFFFF;stroke:#08593A;stroke-width:0.5771;stroke-miterlimit:10;}
	.st46{fill:#FFFF00;}
	.st47{fill:url(#SVGID_122_);}
	.st48{fill:url(#SVGID_123_);}
	.st49{fill:url(#SVGID_124_);}
	.st50{fill:url(#SVGID_125_);}
	.st51{fill:url(#SVGID_126_);}
	.st52{fill:url(#SVGID_127_);}
	.st53{fill:#A77F38;stroke:#A77F38;stroke-width:0.4841;stroke-miterlimit:10;}
	.st54{fill:none;stroke:#A77F38;stroke-width:0.3123;stroke-miterlimit:10;}
	.st55{fill:none;stroke:#A77F38;stroke-width:0.3258;stroke-miterlimit:10;}
	.st56{fill:none;stroke:#A77F38;stroke-width:0.7573;stroke-miterlimit:10;}
	.st57{display:inline;fill:none;stroke:#1D1D1B;stroke-miterlimit:10;}
	.st58{display:inline;fill:none;stroke:#1D1D1B;stroke-width:0.25;stroke-miterlimit:10;}
	.st59{display:inline;fill:none;stroke:#1D1D1B;stroke-width:0.1766;stroke-miterlimit:10;}
	.st60{display:inline;fill:none;stroke:#1D1D1B;stroke-width:0.1767;stroke-miterlimit:10;}
	.st61{fill:none;stroke:#1D1D1B;stroke-miterlimit:10;}
	.st62{display:inline;fill:none;}
	.st63{fill:#1E2235;}
</style>
<g id="Capa_6">
</g>
<g id="Capa_1">
	<g>
		<path class="st18" d="M178.19,138.1V53.9c0-4.03-2.15-7.75-5.64-9.77L99.64,2.04c-3.49-2.01-7.79-2.01-11.28,0l-72.91,42.1
			c-3.49,2.01-5.64,5.74-5.64,9.77v84.19c0,4.03,2.15,7.75,5.64,9.77l72.91,42.1c3.49,2.01,7.79,2.01,11.28,0l72.91-42.1
			C176.04,145.85,178.19,142.12,178.19,138.1z"/>
		<g>
			<path class="st18" d="M123.76,185.3l59.53-59.53c2.85-2.85,3.96-7,2.92-10.89l-21.79-81.32c-1.04-3.89-4.08-6.93-7.97-7.97
				L75.13,3.78c-3.89-1.04-8.04,0.07-10.89,2.92L4.7,66.24c-2.85,2.85-3.96,7-2.92,10.89l21.79,81.32c1.04,3.89,4.08,6.93,7.97,7.97
				l81.32,21.79C116.76,189.26,120.92,188.15,123.76,185.3z"/>
			<path class="st18" d="M64.24,185.3L4.7,125.76c-2.85-2.85-3.96-7-2.92-10.89l21.79-81.32c1.04-3.89,4.08-6.93,7.97-7.97
				l81.32-21.79c3.89-1.04,8.04,0.07,10.89,2.92l59.53,59.53c2.85,2.85,3.96,7,2.92,10.89l-21.79,81.32
				c-1.04,3.89-4.08,6.93-7.97,7.97l-81.32,21.79C71.24,189.26,67.08,188.15,64.24,185.3z"/>
		</g>
	</g>
</g>
<g id="Space">
</g>
<g id="Dorado" class="st30">
</g>
<g id="AUREA" class="st30">
</g>
<g id="Grid">
</g>
</svg>
