<?xml version="1.0" encoding="utf-8"?>
<!-- Generator: Adobe Illustrator 24.0.1, SVG Export Plug-In . SVG Version: 6.00 Build 0)  -->
<svg version="1.1" xmlns="http://www.w3.org/2000/svg" xmlns:xlink="http://www.w3.org/1999/xlink" x="0px" y="0px"
	 viewBox="0 0 324 105" style="enable-background:new 0 0 324 105;" xml:space="preserve">
<style type="text/css">
	.st0{fill:#08593A;}
	.st1{fill:none;stroke:#08593A;stroke-width:0.3853;stroke-miterlimit:10;}
	.st2{fill:#D3D9DA;}
	.st3{fill:none;stroke:#08593A;stroke-width:0.4378;stroke-miterlimit:10;}
	.st4{fill:none;stroke:#08593A;stroke-width:0.7315;stroke-miterlimit:10;}
	.st5{fill:none;stroke:#08593A;stroke-width:0.4278;stroke-miterlimit:10;}
	.st6{fill:none;stroke:#08593A;stroke-width:0.4359;stroke-miterlimit:10;}
	.st7{fill:none;stroke:#08593A;stroke-width:0.5203;stroke-miterlimit:10;}
	.st8{fill:none;stroke:#08593A;stroke-width:0.5577;stroke-miterlimit:10;}
	.st9{opacity:0.8;fill:#FFFFFF;stroke:#08593A;stroke-width:0.5771;stroke-miterlimit:10;}
	.st10{display:none;}
	.st11{display:inline;}
	.st12{fill:#FFFF00;}
	.st13{fill:#A77F38;}
	.st14{fill:url(#SVGID_13_);}
	.st15{fill:url(#SVGID_14_);}
	.st16{fill:url(#SVGID_15_);}
	.st17{fill:url(#SVGID_16_);}
	.st18{fill:url(#SVGID_17_);}
	.st19{fill:url(#SVGID_18_);}
	.st20{fill:#A77F38;stroke:#A77F38;stroke-width:0.4841;stroke-miterlimit:10;}
	.st21{fill:none;stroke:#A77F38;stroke-width:0.3123;stroke-miterlimit:10;}
	.st22{fill:none;stroke:#A77F38;stroke-width:0.3258;stroke-miterlimit:10;}
	.st23{fill:none;stroke:#A77F38;stroke-width:0.7573;stroke-miterlimit:10;}
	.st24{fill:none;stroke:#1D1D1B;stroke-width:0.25;stroke-miterlimit:10;}
	.st25{display:inline;fill:none;stroke:#1D1D1B;stroke-miterlimit:10;}
	.st26{display:inline;fill:none;stroke:#1D1D1B;stroke-width:0.25;stroke-miterlimit:10;}
	.st27{display:inline;fill:none;stroke:#1D1D1B;stroke-width:0.1766;stroke-miterlimit:10;}
	.st28{display:inline;fill:none;stroke:#1D1D1B;stroke-width:0.1767;stroke-miterlimit:10;}
	.st29{fill:none;stroke:#1D1D1B;stroke-miterlimit:10;}
	.st30{display:inline;fill:none;}
</style>
<g id="Capa_6">
</g>
<g id="Capa_1">
	<path class="st1" d="M1.1,77.59v12.98c0,1.94,1.04,3.74,2.72,4.71l11.24,6.49c1.68,0.97,3.76,0.97,5.44,0l11.24-6.49
		c1.68-0.97,2.72-2.77,2.72-4.71V77.59c0-1.94-1.04-3.74-2.72-4.71L20.5,66.39c-1.68-0.97-3.76-0.97-5.44,0L3.82,72.88
		C2.14,73.86,1.1,75.65,1.1,77.59z"/>
	<path class="st1" d="M37.16,77.59v12.98c0,1.94,1.04,3.74,2.72,4.71l11.24,6.49c1.68,0.97,3.76,0.97,5.44,0l11.24-6.49
		c1.68-0.97,2.72-2.77,2.72-4.71V77.59c0-1.94-1.04-3.74-2.72-4.71l-11.24-6.49c-1.68-0.97-3.76-0.97-5.44,0l-11.24,6.49
		C38.19,73.86,37.16,75.65,37.16,77.59z"/>
	<path class="st1" d="M73.21,77.59v12.98c0,1.94,1.04,3.74,2.72,4.71l11.24,6.49c1.68,0.97,3.76,0.97,5.44,0l11.24-6.49
		c1.68-0.97,2.72-2.77,2.72-4.71V77.59c0-1.94-1.04-3.74-2.72-4.71l-11.24-6.49c-1.68-0.97-3.76-0.97-5.44,0l-11.24,6.49
		C74.25,73.86,73.21,75.65,73.21,77.59z"/>
	<path class="st1" d="M73.21,27.41V14.42c0-1.94,1.04-3.74,2.72-4.71l11.24-6.49c1.68-0.97,3.76-0.97,5.44,0l11.24,6.49
		c1.68,0.97,2.72,2.77,2.72,4.71v12.98c0,1.94-1.04,3.74-2.72,4.71l-11.24,6.49c-1.68,0.97-3.76,0.97-5.44,0l-11.24-6.49
		C74.25,31.14,73.21,29.35,73.21,27.41z"/>
	<path class="st1" d="M109.26,77.59v12.98c0,1.94,1.04,3.74,2.72,4.71l11.24,6.49c1.68,0.97,3.76,0.97,5.44,0l11.24-6.49
		c1.68-0.97,2.72-2.77,2.72-4.71V77.59c0-1.94-1.04-3.74-2.72-4.71l-11.24-6.49c-1.68-0.97-3.76-0.97-5.44,0l-11.24,6.49
		C110.3,73.86,109.26,75.65,109.26,77.59z"/>
	<path class="st1" d="M145.32,77.59v12.98c0,1.94,1.04,3.74,2.72,4.71l11.24,6.49c1.68,0.97,3.76,0.97,5.44,0l11.24-6.49
		c1.68-0.97,2.72-2.77,2.72-4.71V77.59c0-1.94-1.04-3.74-2.72-4.71l-11.24-6.49c-1.68-0.97-3.76-0.97-5.44,0l-11.24,6.49
		C146.36,73.86,145.32,75.65,145.32,77.59z"/>
	<path class="st1" d="M109.26,27.41V14.42c0-1.94,1.04-3.74,2.72-4.71l11.24-6.49c1.68-0.97,3.76-0.97,5.44,0l11.24,6.49
		c1.68,0.97,2.72,2.77,2.72,4.71v12.98c0,1.94-1.04,3.74-2.72,4.71l-11.24,6.49c-1.68,0.97-3.76,0.97-5.44,0l-11.24-6.49
		C110.3,31.14,109.26,29.35,109.26,27.41z"/>
	<path class="st1" d="M145.32,27.41V14.42c0-1.94,1.04-3.74,2.72-4.71l11.24-6.49c1.68-0.97,3.76-0.97,5.44,0l11.24,6.49
		c1.68,0.97,2.72,2.77,2.72,4.71v12.98c0,1.94-1.04,3.74-2.72,4.71l-11.24,6.49c-1.68,0.97-3.76,0.97-5.44,0l-11.24-6.49
		C146.36,31.14,145.32,29.35,145.32,27.41z"/>
	<path class="st1" d="M181.37,77.59v12.98c0,1.94,1.04,3.74,2.72,4.71l11.24,6.49c1.68,0.97,3.76,0.97,5.44,0l11.24-6.49
		c1.68-0.97,2.72-2.77,2.72-4.71V77.59c0-1.94-1.04-3.74-2.72-4.71l-11.24-6.49c-1.68-0.97-3.76-0.97-5.44,0l-11.24,6.49
		C182.41,73.86,181.37,75.65,181.37,77.59z"/>
	<path class="st1" d="M181.37,27.41V14.42c0-1.94,1.04-3.74,2.72-4.71l11.24-6.49c1.68-0.97,3.76-0.97,5.44,0l11.24,6.49
		c1.68,0.97,2.72,2.77,2.72,4.71v12.98c0,1.94-1.04,3.74-2.72,4.71l-11.24,6.49c-1.68,0.97-3.76,0.97-5.44,0l-11.24-6.49
		C182.41,31.14,181.37,29.35,181.37,27.41z"/>
	<path class="st1" d="M217.43,77.59v12.98c0,1.94,1.04,3.74,2.72,4.71l11.24,6.49c1.68,0.97,3.76,0.97,5.44,0l11.24-6.49
		c1.68-0.97,2.72-2.77,2.72-4.71V77.59c0-1.94-1.04-3.74-2.72-4.71l-11.24-6.49c-1.68-0.97-3.76-0.97-5.44,0l-11.24,6.49
		C218.46,73.86,217.43,75.65,217.43,77.59z"/>
	<path class="st1" d="M253.48,77.59v12.98c0,1.94,1.04,3.74,2.72,4.71l11.24,6.49c1.68,0.97,3.76,0.97,5.44,0l11.24-6.49
		c1.68-0.97,2.72-2.77,2.72-4.71V77.59c0-1.94-1.04-3.74-2.72-4.71l-11.24-6.49c-1.68-0.97-3.76-0.97-5.44,0l-11.24,6.49
		C254.52,73.86,253.48,75.65,253.48,77.59z"/>
	<path class="st1" d="M217.43,27.41V14.42c0-1.94,1.04-3.74,2.72-4.71l11.24-6.49c1.68-0.97,3.76-0.97,5.44,0l11.24,6.49
		c1.68,0.97,2.72,2.77,2.72,4.71v12.98c0,1.94-1.04,3.74-2.72,4.71l-11.24,6.49c-1.68,0.97-3.76,0.97-5.44,0l-11.24-6.49
		C218.46,31.14,217.43,29.35,217.43,27.41z"/>
	<path class="st1" d="M289.54,77.59v12.98c0,1.94,1.04,3.74,2.72,4.71l11.24,6.49c1.68,0.97,3.76,0.97,5.44,0l11.24-6.49
		c1.68-0.97,2.72-2.77,2.72-4.71V77.59c0-1.94-1.04-3.74-2.72-4.71l-11.24-6.49c-1.68-0.97-3.76-0.97-5.44,0l-11.24,6.49
		C290.57,73.86,289.54,75.65,289.54,77.59z"/>
	<g>
		<path class="st1" d="M253.48,27.41V14.42c0-1.94,1.04-3.74,2.72-4.71l11.24-6.49c1.68-0.97,3.76-0.97,5.44,0l11.24,6.49
			c1.68,0.97,2.72,2.77,2.72,4.71v12.98c0,1.94-1.04,3.74-2.72,4.71l-11.24,6.49c-1.68,0.97-3.76,0.97-5.44,0l-11.24-6.49
			C254.52,31.14,253.48,29.35,253.48,27.41z"/>
		<path class="st1" d="M289.54,27.41V14.42c0-1.94,1.04-3.74,2.72-4.71l11.24-6.49c1.68-0.97,3.76-0.97,5.44,0l11.24,6.49
			c1.68,0.97,2.72,2.77,2.72,4.71v12.98c0,1.94-1.04,3.74-2.72,4.71l-11.24,6.49c-1.68,0.97-3.76,0.97-5.44,0l-11.24-6.49
			C290.57,31.14,289.54,29.35,289.54,27.41z"/>
	</g>
	<g>
		<path class="st1" d="M91.24,46.01v12.98c0,1.94,1.04,3.74,2.72,4.71l11.24,6.49c1.68,0.97,3.76,0.97,5.44,0l11.24-6.49
			c1.68-0.97,2.72-2.77,2.72-4.71V46.01c0-1.94-1.04-3.74-2.72-4.71l-11.24-6.49c-1.68-0.97-3.76-0.97-5.44,0L93.96,41.3
			C92.27,42.27,91.24,44.07,91.24,46.01z"/>
	</g>
	<g>
		<path class="st1" d="M199.4,46.01v12.98c0,1.94,1.04,3.74,2.72,4.71l11.24,6.49c1.68,0.97,3.76,0.97,5.44,0l11.24-6.49
			c1.68-0.97,2.72-2.77,2.72-4.71V46.01c0-1.94-1.04-3.74-2.72-4.71l-11.24-6.49c-1.68-0.97-3.76-0.97-5.44,0l-11.24,6.49
			C200.44,42.27,199.4,44.07,199.4,46.01z"/>
	</g>
	<g>
		<path class="st1" d="M19.13,46.01v12.98c0,1.94,1.04,3.74,2.72,4.71l11.24,6.49c1.68,0.97,3.76,0.97,5.44,0l11.24-6.49
			c1.68-0.97,2.72-2.77,2.72-4.71V46.01c0-1.94-1.04-3.74-2.72-4.71l-11.24-6.49c-1.68-0.97-3.76-0.97-5.44,0L21.85,41.3
			C20.16,42.27,19.13,44.07,19.13,46.01z"/>
	</g>
	<g>
		<path class="st1" d="M55.18,46.01v12.98c0,1.94,1.04,3.74,2.72,4.71l11.24,6.49c1.68,0.97,3.76,0.97,5.44,0l11.24-6.49
			c1.68-0.97,2.72-2.77,2.72-4.71V46.01c0-1.94-1.04-3.74-2.72-4.71l-11.24-6.49c-1.68-0.97-3.76-0.97-5.44,0L57.9,41.3
			C56.22,42.27,55.18,44.07,55.18,46.01z"/>
	</g>
	<g>
		<path class="st1" d="M127.29,46.01v12.98c0,1.94,1.04,3.74,2.72,4.71l11.24,6.49c1.68,0.97,3.76,0.97,5.44,0l11.24-6.49
			c1.68-0.97,2.72-2.77,2.72-4.71V46.01c0-1.94-1.04-3.74-2.72-4.71l-11.24-6.49c-1.68-0.97-3.76-0.97-5.44,0l-11.24,6.49
			C128.33,42.27,127.29,44.07,127.29,46.01z"/>
	</g>
	<g>
		<path class="st1" d="M163.35,46.01v12.98c0,1.94,1.04,3.74,2.72,4.71l11.24,6.49c1.68,0.97,3.76,0.97,5.44,0l11.24-6.49
			c1.68-0.97,2.72-2.77,2.72-4.71V46.01c0-1.94-1.04-3.74-2.72-4.71l-11.24-6.49c-1.68-0.97-3.76-0.97-5.44,0l-11.24,6.49
			C164.38,42.27,163.35,44.07,163.35,46.01z"/>
	</g>
	<g>
		<path class="st1" d="M235.46,46.01v12.98c0,1.94,1.04,3.74,2.72,4.71l11.24,6.49c1.68,0.97,3.76,0.97,5.44,0l11.24-6.49
			c1.68-0.97,2.72-2.77,2.72-4.71V46.01c0-1.94-1.04-3.74-2.72-4.71l-11.24-6.49c-1.68-0.97-3.76-0.97-5.44,0l-11.24,6.49
			C236.49,42.27,235.46,44.07,235.46,46.01z"/>
	</g>
	<g>
		<path class="st1" d="M271.51,46.01v12.98c0,1.94,1.04,3.74,2.72,4.71l11.24,6.49c1.68,0.97,3.76,0.97,5.44,0l11.24-6.49
			c1.68-0.97,2.72-2.77,2.72-4.71V46.01c0-1.94-1.04-3.74-2.72-4.71l-11.24-6.49c-1.68-0.97-3.76-0.97-5.44,0l-11.24,6.49
			C272.55,42.27,271.51,44.07,271.51,46.01z"/>
	</g>
	<g>
		<g>
			<path class="st1" d="M37.16,27.41V14.42c0-1.94,1.04-3.74,2.72-4.71l11.24-6.49c1.68-0.97,3.76-0.97,5.44,0L67.8,9.71
				c1.68,0.97,2.72,2.77,2.72,4.71v12.98c0,1.94-1.04,3.74-2.72,4.71l-11.24,6.49c-1.68,0.97-3.76,0.97-5.44,0l-11.24-6.49
				C38.19,31.14,37.16,29.35,37.16,27.41z"/>
		</g>
		<g>
			<path class="st1" d="M1.1,27.41V14.42c0-1.94,1.04-3.74,2.72-4.71l11.24-6.49c1.68-0.97,3.76-0.97,5.44,0l11.24,6.49
				c1.68,0.97,2.72,2.77,2.72,4.71v12.98c0,1.94-1.04,3.74-2.72,4.71L20.5,38.61c-1.68,0.97-3.76,0.97-5.44,0L3.82,32.12
				C2.14,31.14,1.1,29.35,1.1,27.41z"/>
		</g>
	</g>
</g>
<g id="Space" class="st10">
</g>
<g id="Dorado" class="st10">
</g>
<g id="AUREA" class="st10">
	<g class="st11">
		<g>
			<g>
				<rect x="154.11" y="-92.98" class="st24" width="393.88" height="393.88"/>
			</g>
			<g>
				<rect x="153.99" y="54.72" class="st24" width="246.17" height="246.17"/>
				
					<rect x="153.99" y="-339.16" transform="matrix(-1 -4.488866e-11 4.488866e-11 -1 701.858 -284.4364)" class="st24" width="393.88" height="393.88"/>
			</g>
		</g>
		<g>
			<g>
				
					<rect x="153.99" y="-92.98" transform="matrix(-1 -4.491442e-11 4.491442e-11 -1 701.858 207.9081)" class="st24" width="393.88" height="393.88"/>
			</g>
			<g>
				
					<rect x="301.81" y="54.72" transform="matrix(-1 -1.224647e-16 1.224647e-16 -1 849.791 355.6115)" class="st24" width="246.17" height="246.17"/>
				
					<rect x="203.23" y="54.42" transform="matrix(-1 -1.224647e-16 1.224647e-16 -1 504.9202 207.3171)" class="st24" width="98.47" height="98.47"/>
				<rect x="154.07" y="54.34" class="st24" width="49.23" height="49.23"/>
				<rect x="154.07" y="103.66" class="st24" width="49.23" height="49.23"/>
				<rect x="154.11" y="-339.16" class="st24" width="393.88" height="393.88"/>
			</g>
		</g>
	</g>
	<rect x="171.09" y="-379.13" class="st25" width="360" height="720"/>
	<line class="st26" x1="154.47" y1="17.78" x2="546.9" y2="17.78"/>
	<g class="st11">
		<defs>
			<rect id="SVGID_33_" x="154.91" y="-370.04" width="392.77" height="698.25"/>
		</defs>
		<clipPath id="SVGID_2_">
			<use xlink:href="#SVGID_33_"  style="overflow:visible;"/>
		</clipPath>
	</g>
</g>
<g id="Grid">
</g>
</svg>
