<?xml version="1.0" encoding="utf-8"?>
<!-- Generator: Adobe Illustrator 24.0.1, SVG Export Plug-In . SVG Version: 6.00 Build 0)  -->
<svg version="1.1" xmlns="http://www.w3.org/2000/svg" xmlns:xlink="http://www.w3.org/1999/xlink" x="0px" y="0px"
	 viewBox="0 0 265 150" style="enable-background:new 0 0 265 150;" xml:space="preserve">
<style type="text/css">
	.st0{fill:#08593A;}
	.st1{fill:#A77F38;}
	.st2{fill:none;stroke:#1D1D1B;stroke-width:0.25;stroke-miterlimit:10;}
	.st3{fill:none;stroke:#FFFFFF;stroke-width:3;stroke-miterlimit:10;}
	.st4{fill:#172D1B;}
	.st5{fill:url(#SVGID_33_);}
	.st6{fill:url(#SVGID_34_);}
	.st7{fill:url(#SVGID_35_);}
	.st8{fill:url(#SVGID_36_);}
	.st9{fill:url(#SVGID_37_);}
	.st10{fill:url(#SVGID_38_);}
	.st11{fill:url(#SVGID_39_);}
	.st12{fill:url(#SVGID_40_);}
	.st13{fill:url(#SVGID_41_);}
	.st14{fill:#172D1B;stroke:#172D1B;stroke-width:0.4841;stroke-miterlimit:10;}
	.st15{fill:none;stroke:#08593A;stroke-width:0.3123;stroke-miterlimit:10;}
	.st16{fill:none;stroke:#08593A;stroke-width:0.3258;stroke-miterlimit:10;}
	.st17{fill:none;stroke:#172D1B;stroke-width:0.3123;stroke-miterlimit:10;}
	.st18{font-family:'LibreBaskerville-Regular';}
	.st19{font-size:24.4237px;}
	.st20{font-size:6px;}
	.st21{font-size:24.5518px;}
	.st22{letter-spacing:-1;}
	.st23{font-family:'LibreBaskerville-Bold';}
	.st24{font-size:15px;}
	.st25{font-size:8px;}
	.st26{fill:none;stroke:#08593A;stroke-width:0.9173;stroke-miterlimit:10;}
	.st27{fill:none;stroke:#08593A;stroke-width:0.4403;stroke-miterlimit:10;}
	.st28{fill:none;stroke:#08593A;stroke-width:0.75;stroke-miterlimit:10;}
	.st29{fill:none;stroke:#08593A;stroke-width:0.742;stroke-miterlimit:10;}
	.st30{fill:none;stroke:#08593A;stroke-width:0.7087;stroke-miterlimit:10;}
	.st31{fill:none;stroke:#08593A;stroke-width:0.7011;stroke-miterlimit:10;}
	.st32{fill:none;stroke:#08593A;stroke-width:0.7355;stroke-miterlimit:10;}
	.st33{fill:none;stroke:#08593A;stroke-width:0.7277;stroke-miterlimit:10;}
	.st34{fill:none;stroke:#08593A;stroke-width:1.1857;stroke-miterlimit:10;}
	.st35{fill:none;stroke:#08593A;stroke-width:1.1731;stroke-miterlimit:10;}
	.st36{fill:none;stroke:#08593A;stroke-miterlimit:10;}
	.st37{fill:none;stroke:#FF0000;stroke-width:1.8492;stroke-miterlimit:10;}
	.st38{display:none;}
	.st39{display:inline;}
	.st40{display:none;fill:none;stroke:#08593A;stroke-width:0.7315;stroke-miterlimit:10;}
	.st41{fill:none;stroke:#08593A;stroke-width:0.7315;stroke-miterlimit:10;}
	.st42{fill:none;stroke:#08593A;stroke-width:0.5388;stroke-miterlimit:10;}
	.st43{fill:none;stroke:#08593A;stroke-width:0.3853;stroke-miterlimit:10;}
	.st44{fill:#D3D9DA;}
	.st45{fill:none;stroke:#08593A;stroke-width:0.4378;stroke-miterlimit:10;}
	.st46{fill:none;stroke:#08593A;stroke-width:0.6617;stroke-miterlimit:10;}
	.st47{fill:#182D1C;}
	.st48{fill:none;stroke:#08593A;stroke-width:0.4278;stroke-miterlimit:10;}
	.st49{fill:none;stroke:#08593A;stroke-width:0.4359;stroke-miterlimit:10;}
	.st50{fill:none;stroke:#08593A;stroke-width:0.5577;stroke-miterlimit:10;}
	.st51{fill:none;stroke:#08593A;stroke-width:0.621;stroke-miterlimit:10;}
	.st52{fill:none;stroke:#08593A;stroke-width:0.5203;stroke-miterlimit:10;}
	.st53{opacity:0.8;fill:#FFFFFF;stroke:#08593A;stroke-width:0.5771;stroke-miterlimit:10;}
	.st54{fill:#FFFF00;}
	.st55{fill:url(#SVGID_122_);}
	.st56{fill:url(#SVGID_123_);}
	.st57{fill:url(#SVGID_124_);}
	.st58{fill:url(#SVGID_125_);}
	.st59{fill:url(#SVGID_126_);}
	.st60{fill:url(#SVGID_127_);}
	.st61{fill:#A77F38;stroke:#A77F38;stroke-width:0.4841;stroke-miterlimit:10;}
	.st62{fill:none;stroke:#A77F38;stroke-width:0.3123;stroke-miterlimit:10;}
	.st63{fill:none;stroke:#A77F38;stroke-width:0.3258;stroke-miterlimit:10;}
	.st64{fill:none;stroke:#A77F38;stroke-width:0.7573;stroke-miterlimit:10;}
	.st65{display:inline;fill:none;stroke:#1D1D1B;stroke-miterlimit:10;}
	.st66{display:inline;fill:none;stroke:#1D1D1B;stroke-width:0.25;stroke-miterlimit:10;}
	.st67{display:inline;fill:none;stroke:#1D1D1B;stroke-width:0.1766;stroke-miterlimit:10;}
	.st68{display:inline;fill:none;stroke:#1D1D1B;stroke-width:0.1767;stroke-miterlimit:10;}
	.st69{fill:none;stroke:#1D1D1B;stroke-miterlimit:10;}
	.st70{display:inline;fill:none;}
	.st71{fill:#1E2235;}
</style>
<g id="Capa_6">
</g>
<g id="Capa_1">
	<g>
		<g>
			<text transform="matrix(1 0 0 1 12.2691 38.9905)" class="st4 st18 st19">$</text>
		</g>
		<g>
			<text transform="matrix(1 0 0 1 0.3675 56.0155)" class="st4 st18 st20">Tu Inversión</text>
		</g>
		<text transform="matrix(1 0 0 1 53.6126 56.0155)"><tspan x="0" y="0" class="st4 st18 st20">Modelo de</tspan><tspan x="0.17" y="6" class="st4 st18 st20">Operación</tspan></text>
		<path class="st14" d="M80.01,35.64c0.01-0.01,0.01-0.01,0.02-0.02c0.01-0.01,0.02-0.02,0.03-0.03l0.01-0.02
			c0.01-0.01,0.02-0.03,0.02-0.04c0.01-0.02,0.01-0.04,0.02-0.05c0,0,0-0.01,0-0.02l0-0.02c0-0.01,0-0.03,0-0.04v-8.45
			c0-0.01,0-0.03,0-0.04l0-0.01c0-0.01,0-0.02,0-0.03c-0.01-0.03-0.02-0.07-0.04-0.1c0-0.01-0.01-0.01-0.02-0.02
			c-0.01-0.02-0.02-0.03-0.03-0.04l-5.98-5.98c-0.01-0.01-0.02-0.02-0.03-0.02c-0.02-0.01-0.02-0.02-0.03-0.03
			c-0.01-0.01-0.03-0.02-0.04-0.02l-0.01,0c-0.02-0.01-0.04-0.01-0.05-0.02l-0.01,0l-0.03,0c-0.01,0-0.03,0-0.04,0h-8.46
			c-0.01,0-0.03,0-0.04,0l-0.04,0c-0.01,0-0.02,0.01-0.04,0.01l-0.01,0c-0.02,0.01-0.03,0.02-0.05,0.02c-0.01,0-0.01,0.01-0.02,0.02
			c-0.01,0.01-0.03,0.02-0.04,0.03l-5.98,5.98c-0.01,0.01-0.02,0.02-0.02,0.03l-0.03,0.03c0,0-0.01,0.02-0.02,0.04l0,0.01
			c-0.01,0.02-0.01,0.04-0.02,0.05c0,0.01,0,0.02,0,0.03c0,0.02,0,0.03,0,0.04v8.45c0,0.01,0,0.02,0,0.04c0,0.02,0,0.03,0,0.04
			c0,0.01,0.01,0.03,0.01,0.05l0.01,0.02c0,0.01,0.01,0.02,0.02,0.03l0.01,0.01c0.01,0.01,0.02,0.02,0.02,0.03l0.02,0.02l5.97,5.97
			c0.01,0.01,0.02,0.02,0.03,0.02c0.02,0.01,0.02,0.02,0.03,0.03c0.01,0.01,0.02,0.01,0.04,0.02c0.01,0,0.01,0,0.02,0.01
			c0.01,0,0.03,0.01,0.04,0.01c0.02,0,0.03,0,0.05,0.01l0.01,0h8.5c0.01,0,0.03,0,0.04-0.01c0.02,0,0.03-0.01,0.05-0.01l0.02-0.01
			c0.02-0.01,0.03-0.01,0.04-0.02c0.01-0.01,0.01-0.01,0.02-0.02c0.01-0.01,0.02-0.02,0.03-0.03L80.01,35.64z M79.54,34.99
			l-4.77-1.97v-3.69l4.77-1.98V34.99z M73.92,21.43l5.4,5.4l-4.77,1.98l-2.61-2.61L73.92,21.43z M74.2,29.26v3.83l-2.71,2.71h-3.83
			l-2.71-2.71v-3.83l2.71-2.71h3.83L74.2,29.26z M73.39,21.21l-1.98,4.77h-3.69l-1.97-4.77H73.39z M65.23,21.43l1.97,4.77L64.6,28.8
			l-4.77-1.97L65.23,21.43z M59.61,27.36l4.77,1.98v3.69l-4.77,1.98V27.36z M65.23,40.92l-5.4-5.4l4.77-1.97l2.61,2.61L65.23,40.92z
			 M65.76,41.14l1.97-4.77h3.69l1.98,4.77H65.76z M73.92,40.92l-1.98-4.77l2.61-2.61l4.77,1.97L73.92,40.92z"/>
		<g>
			<g>
				<text transform="matrix(1 0 0 1 197.3911 127.7315)" class="st4 st18 st21 st22">50%</text>
			</g>
			<g>
				<text transform="matrix(1 0 0 1 199.1607 140.6434)" class="st4 st18 st20">Se reinvierte </text>
			</g>
		</g>
		<g>
			<g>
				<g>
					<g>
						<path class="st4" d="M45.07,116.15c-1.54,0-2.8-1.26-2.8-2.8s1.26-2.8,2.8-2.8c1.54,0,2.8,1.26,2.8,2.8
							S46.61,116.15,45.07,116.15z M45.07,111.37c-1.09,0-1.98,0.89-1.98,1.98c0,1.09,0.89,1.98,1.98,1.98
							c1.09,0,1.98-0.89,1.98-1.98C47.05,112.26,46.16,111.37,45.07,111.37z"/>
						<path class="st4" d="M48.05,123.02c-0.23,0-0.41-0.18-0.41-0.41v-4.55c0-0.12,0.05-0.23,0.14-0.31
							c0.09-0.08,0.21-0.11,0.33-0.1l0.23,0.03c2.14,0.29,3.81,0.05,5.99-0.84l2.05-0.84c0.16-0.07,0.28-0.19,0.34-0.36
							c0.06-0.16,0.05-0.34-0.03-0.5c-0.15-0.28-0.48-0.41-0.78-0.29l-0.93,0.38c-2.47,1-5.16,1.25-7.78,0.71l-0.73-0.15
							c-0.22-0.05-0.37-0.26-0.32-0.49c0.05-0.22,0.26-0.37,0.49-0.32l0.73,0.15c2.45,0.5,4.98,0.27,7.3-0.67l0.93-0.38
							c0.69-0.28,1.47,0.01,1.82,0.67c0.19,0.36,0.21,0.78,0.08,1.16c-0.14,0.38-0.43,0.68-0.8,0.84l-2.05,0.84
							c-2.21,0.91-4.02,1.19-6.18,0.93v4.08C48.47,122.84,48.28,123.02,48.05,123.02z"/>
						<path class="st4" d="M41.96,123.02c-0.23,0-0.41-0.18-0.41-0.41v-4.08c-2.16,0.26-3.97-0.02-6.18-0.93l-2.05-0.84
							c-0.37-0.15-0.67-0.46-0.8-0.84c-0.14-0.38-0.11-0.8,0.08-1.16c0.34-0.66,1.13-0.95,1.82-0.67l0.93,0.38
							c2.32,0.94,4.85,1.17,7.3,0.67l0.73-0.15c0.22-0.05,0.44,0.1,0.49,0.32c0.05,0.22-0.1,0.44-0.32,0.49l-0.73,0.15
							c-2.61,0.54-5.3,0.29-7.78-0.71l-0.93-0.38c-0.3-0.12-0.63,0-0.78,0.29c-0.08,0.16-0.09,0.33-0.03,0.5
							c0.06,0.16,0.18,0.29,0.34,0.36l2.05,0.84c2.17,0.9,3.85,1.13,5.99,0.84l0.23-0.03c0.12-0.02,0.24,0.02,0.33,0.1
							c0.09,0.08,0.14,0.19,0.14,0.31v4.55C42.37,122.84,42.18,123.02,41.96,123.02z"/>
					</g>
					<path class="st4" d="M41.79,127.3c-0.02,0-0.04,0-0.05,0l-4.33-0.58c-0.52-0.07-0.99-0.34-1.3-0.77
						c-0.32-0.42-0.44-0.95-0.36-1.47c0.08-0.52,0.37-0.98,0.8-1.28c0.43-0.3,0.96-0.42,1.48-0.32l4.63,0.88
						c0.22,0.04,0.37,0.26,0.33,0.48c-0.04,0.22-0.26,0.37-0.48,0.33l-4.63-0.88c-0.3-0.06-0.6,0.01-0.85,0.18
						c-0.25,0.18-0.41,0.44-0.46,0.74c-0.05,0.3,0.02,0.6,0.21,0.85c0.18,0.25,0.45,0.4,0.75,0.44l4.33,0.58
						c0.23,0.03,0.38,0.24,0.35,0.46C42.17,127.15,41.99,127.3,41.79,127.3z"/>
					<path class="st4" d="M44.18,127.82c-0.83,0-1.55-0.6-1.69-1.44c-0.15-0.92,0.45-1.79,1.37-1.96l8.1-1.54
						c0.52-0.1,1.05,0.01,1.48,0.32c0.43,0.3,0.72,0.76,0.8,1.28c0.08,0.52-0.04,1.04-0.36,1.47c-0.32,0.42-0.78,0.7-1.3,0.77
						l-8.17,1.09l0,0C44.33,127.82,44.26,127.82,44.18,127.82z M44.36,127.4L44.36,127.4L44.36,127.4z M52.33,123.67
						c-0.07,0-0.14,0.01-0.21,0.02l-8.1,1.54c-0.48,0.09-0.79,0.54-0.72,1.02c0.08,0.48,0.52,0.81,1,0.74l8.17-1.09
						c0.3-0.04,0.57-0.2,0.75-0.44c0.18-0.25,0.26-0.55,0.21-0.85c-0.05-0.3-0.21-0.56-0.46-0.74
						C52.78,123.74,52.56,123.67,52.33,123.67z"/>
				</g>
				<path class="st4" d="M35.51,113.53C35.5,113.53,35.5,113.53,35.51,113.53c-0.11,0-0.22-0.04-0.29-0.12l-3.36-3.4
					c-1-1.01-0.99-2.64,0.02-3.63c1.01-1,2.64-0.99,3.63,0.02l0.04,0.04l0.06-0.06c0.48-0.48,1.13-0.74,1.81-0.74c0,0,0.01,0,0.01,0
					c0.69,0,1.33,0.27,1.81,0.76c1,1.01,0.99,2.64-0.02,3.63l-3.42,3.38C35.72,113.49,35.61,113.53,35.51,113.53z M33.68,106.46
					c-0.44,0-0.89,0.17-1.23,0.5c-0.68,0.68-0.69,1.79-0.01,2.47l3.07,3.11l3.13-3.09c0.68-0.68,0.69-1.79,0.01-2.47
					c-0.33-0.33-0.77-0.52-1.23-0.52c0,0-0.01,0-0.01,0c-0.46,0-0.9,0.18-1.23,0.51l-0.35,0.35c-0.16,0.16-0.42,0.16-0.58,0
					l-0.33-0.33C34.58,106.63,34.13,106.46,33.68,106.46z"/>
				<path class="st4" d="M54.12,114.09c-0.23,0-0.41-0.18-0.41-0.41l0-0.26c-0.69-0.11-1.35-0.35-1.81-0.68
					c-0.27-0.19-0.37-0.54-0.25-0.86l0.33-0.94c0.08-0.22,0.25-0.39,0.47-0.46c0.22-0.07,0.46-0.04,0.65,0.08
					c0.45,0.3,1.03,0.47,1.59,0.47c0,0,0.01,0,0.01,0c0.29,0,0.55-0.07,0.71-0.2c0.14-0.11,0.21-0.25,0.21-0.42
					c0-0.18,0-0.52-1.12-0.97c-1.37-0.53-2.78-1.32-2.79-3.11c-0.01-1.35,0.8-2.42,2.12-2.85l0-1.19c0-0.2,0.07-0.38,0.19-0.51
					c0.13-0.15,0.32-0.23,0.53-0.23l0.87,0c0,0,0,0,0,0c0.2,0,0.38,0.07,0.52,0.21c0.14,0.14,0.22,0.32,0.22,0.53l0,1.05
					c0.53,0.09,1.03,0.27,1.46,0.51c0.32,0.19,0.46,0.57,0.33,0.91l-0.35,0.93c-0.08,0.21-0.24,0.37-0.45,0.44
					c-0.21,0.08-0.43,0.06-0.63-0.05c-0.21-0.12-0.66-0.37-1.38-0.37c-0.01,0-0.01,0-0.02,0c-0.27,0-0.73,0.06-0.73,0.46
					c0,0.18,0,0.38,1.28,0.9c2.36,0.95,2.64,2.31,2.65,3.24c0.01,1.48-0.98,2.68-2.51,3.07c-0.22,0.06-0.44-0.08-0.5-0.3
					c-0.06-0.22,0.08-0.44,0.3-0.5c1.16-0.29,1.9-1.18,1.89-2.27c0-0.81-0.26-1.73-2.13-2.49c-1.21-0.49-1.79-0.87-1.79-1.66
					c0-0.35,0.14-0.67,0.39-0.9c0.28-0.26,0.67-0.39,1.16-0.39c0.01,0,0.01,0,0.02,0c0.86,0,1.43,0.28,1.71,0.44l0.29-0.79
					c-0.41-0.23-0.91-0.37-1.44-0.43c-0.21-0.02-0.37-0.2-0.37-0.41l0-1.32l-0.69,0l0.01,1.42c0,0.19-0.13,0.36-0.31,0.4
					c-1.13,0.27-1.81,1.07-1.8,2.14c0.01,1.22,0.91,1.82,2.27,2.34c1.15,0.46,1.63,0.97,1.64,1.73c0,0.43-0.18,0.81-0.52,1.08
					c-0.31,0.24-0.73,0.38-1.21,0.38c-0.01,0-0.01,0-0.02,0c-0.69,0-1.4-0.2-1.97-0.56l-0.29,0.81c0.43,0.28,1.07,0.48,1.72,0.54
					c0.21,0.02,0.37,0.19,0.38,0.41l0.01,0.62C54.54,113.9,54.35,114.09,54.12,114.09C54.12,114.09,54.12,114.09,54.12,114.09z"/>
			</g>
			<text transform="matrix(1 0 0 1 29.3214 140.6434)"><tspan x="0" y="0" class="st4 st18 st20">Multiplica </tspan><tspan x="2.73" y="6.65" class="st4 st18 st20">Tu Valor</tspan></text>
		</g>
		<g>
			<g>
				<path class="st4" d="M194.05,35.28c-2.23,0-4.05-1.82-4.05-4.05c0-2.23,1.82-4.05,4.05-4.05c2.23,0,4.05,1.82,4.05,4.05
					C198.1,33.46,196.29,35.28,194.05,35.28z M194.05,27.94c-1.81,0-3.28,1.47-3.28,3.28c0,1.81,1.47,3.28,3.28,3.28
					c1.81,0,3.28-1.47,3.28-3.28C197.34,29.42,195.86,27.94,194.05,27.94z"/>
				<path class="st4" d="M194.05,36.63c-2.01,0-4.18-0.9-6.27-2.6c-1.56-1.27-2.52-2.52-2.56-2.58c-0.1-0.14-0.1-0.33,0-0.46
					c0.04-0.05,1-1.31,2.56-2.58c2.09-1.7,4.26-2.6,6.27-2.6s4.18,0.9,6.27,2.6c1.56,1.27,2.52,2.52,2.56,2.58
					c0.1,0.14,0.1,0.33,0,0.46c-0.04,0.05-1,1.31-2.56,2.58C198.24,35.74,196.07,36.63,194.05,36.63z M186.02,31.23
					c0.81,0.97,4.14,4.64,8.03,4.64c3.89,0,7.22-3.67,8.03-4.64c-0.81-0.97-4.14-4.64-8.03-4.64
					C190.16,26.59,186.83,30.26,186.02,31.23z"/>
				<circle class="st4" cx="194.05" cy="31.23" r="1.46"/>
				<path class="st4" d="M195.78,31.22c-0.9,0-1.64-0.73-1.64-1.64c0-0.9,0.73-1.64,1.64-1.64c0.9,0,1.64,0.73,1.64,1.64
					C197.42,30.49,196.69,31.22,195.78,31.22z M195.78,28.71c-0.48,0-0.87,0.39-0.87,0.87c0,0.48,0.39,0.87,0.87,0.87
					c0.48,0,0.87-0.39,0.87-0.87C196.66,29.1,196.26,28.71,195.78,28.71z"/>
			</g>
			<path class="st4" d="M194.05,19.84c-0.21,0-0.38-0.17-0.38-0.38v-0.38c0-0.21,0.17-0.38,0.38-0.38c0.21,0,0.38,0.17,0.38,0.38
				v0.38C194.44,19.67,194.26,19.84,194.05,19.84z"/>
			<path class="st4" d="M194.05,24.44c-0.21,0-0.38-0.17-0.38-0.38v-2.91c0-0.21,0.17-0.38,0.38-0.38c0.21,0,0.38,0.17,0.38,0.38
				v2.91C194.44,24.27,194.26,24.44,194.05,24.44z"/>
			<path class="st4" d="M194.05,41.85c-0.21,0-0.38-0.17-0.38-0.38v-2.99c0-0.21,0.17-0.38,0.38-0.38c0.21,0,0.38,0.17,0.38,0.38
				v2.99C194.44,41.68,194.26,41.85,194.05,41.85z"/>
			<path class="st4" d="M194.05,43.65c-0.21,0-0.38-0.17-0.38-0.38v-0.29c0-0.21,0.17-0.38,0.38-0.38c0.21,0,0.38,0.17,0.38,0.38
				v0.29C194.44,43.48,194.26,43.65,194.05,43.65z"/>
			<path class="st4" d="M184.09,31.56h-2.4c-0.21,0-0.38-0.17-0.38-0.38c0-0.21,0.17-0.38,0.38-0.38h2.4c0.21,0,0.38,0.17,0.38,0.38
				C184.47,31.39,184.3,31.56,184.09,31.56z"/>
			<path class="st4" d="M206.17,31.56h-2.4c-0.21,0-0.38-0.17-0.38-0.38c0-0.21,0.17-0.38,0.38-0.38h2.4c0.21,0,0.38,0.17,0.38,0.38
				C206.55,31.39,206.38,31.56,206.17,31.56z"/>
			<path class="st4" d="M185.82,39.8c-0.1,0-0.2-0.04-0.27-0.11c-0.15-0.15-0.15-0.39,0-0.54l2.79-2.79c0.15-0.15,0.39-0.15,0.54,0
				c0.15,0.15,0.15,0.39,0,0.54l-2.79,2.79C186.02,39.76,185.92,39.8,185.82,39.8z"/>
			<path class="st4" d="M199.47,26.15c-0.1,0-0.2-0.04-0.27-0.11c-0.15-0.15-0.15-0.39,0-0.54l2.82-2.82c0.15-0.15,0.39-0.15,0.54,0
				c0.15,0.15,0.15,0.39,0,0.54l-2.82,2.82C199.67,26.11,199.57,26.15,199.47,26.15z"/>
			<path class="st4" d="M185.72,23.23c-0.1,0-0.2-0.04-0.27-0.11l-0.22-0.22c-0.15-0.15-0.15-0.39,0-0.54
				c0.15-0.15,0.39-0.15,0.54,0l0.22,0.22c0.15,0.15,0.15,0.39,0,0.54C185.91,23.19,185.82,23.23,185.72,23.23z"/>
			<path class="st4" d="M188.61,26.12c-0.1,0-0.2-0.04-0.27-0.11l-1.86-1.86c-0.15-0.15-0.15-0.39,0-0.54
				c0.15-0.15,0.39-0.15,0.54,0l1.86,1.86c0.15,0.15,0.15,0.39,0,0.54C188.8,26.08,188.71,26.12,188.61,26.12z"/>
			<path class="st4" d="M202.44,39.94c-0.1,0-0.2-0.04-0.27-0.11l-2.85-2.85c-0.15-0.15-0.15-0.39,0-0.54
				c0.15-0.15,0.39-0.15,0.54,0l2.85,2.85c0.15,0.15,0.15,0.39,0,0.54C202.63,39.91,202.53,39.94,202.44,39.94z"/>
			<path class="st4" d="M203.49,41c-0.1,0-0.2-0.04-0.27-0.11l-0.15-0.15c-0.15-0.15-0.15-0.39,0-0.54c0.15-0.15,0.39-0.15,0.54,0
				l0.15,0.15c0.15,0.15,0.15,0.39,0,0.54C203.69,40.96,203.59,41,203.49,41z"/>
			<path class="st4" d="M190.62,23.33c-0.15,0-0.29-0.09-0.35-0.23l-1.05-2.51c-0.08-0.19,0.01-0.42,0.21-0.5
				c0.19-0.08,0.42,0.01,0.5,0.21l1.05,2.51c0.08,0.19-0.01,0.42-0.21,0.5C190.72,23.32,190.67,23.33,190.62,23.33z"/>
			<path class="st4" d="M198.41,42.01c-0.15,0-0.29-0.09-0.35-0.23l-0.84-2.03c-0.08-0.19,0.01-0.42,0.21-0.5
				c0.19-0.08,0.42,0.01,0.5,0.21l0.84,2.03c0.08,0.19-0.01,0.42-0.21,0.5C198.51,42,198.46,42.01,198.41,42.01z"/>
			<path class="st4" d="M189.5,41.98c-0.05,0-0.1-0.01-0.15-0.03c-0.19-0.08-0.28-0.31-0.2-0.5l1.06-2.51
				c0.08-0.19,0.31-0.28,0.5-0.2c0.19,0.08,0.28,0.31,0.2,0.5l-1.06,2.51C189.79,41.89,189.65,41.98,189.5,41.98z"/>
			<path class="st4" d="M197.62,22.87c-0.05,0-0.1-0.01-0.15-0.03c-0.19-0.08-0.28-0.31-0.2-0.5l0.86-2.02
				c0.08-0.19,0.31-0.28,0.5-0.2c0.19,0.08,0.28,0.31,0.2,0.5l-0.86,2.02C197.91,22.78,197.77,22.87,197.62,22.87z"/>
			<path class="st4" d="M183.57,36.22c-0.14,0-0.28-0.08-0.35-0.22c-0.09-0.19,0-0.42,0.19-0.51l2.47-1.14
				c0.19-0.09,0.42,0,0.51,0.19c0.09,0.19,0,0.42-0.19,0.51l-2.47,1.14C183.68,36.21,183.62,36.22,183.57,36.22z"/>
			<path class="st4" d="M202.42,27.52c-0.14,0-0.28-0.08-0.35-0.22c-0.09-0.19,0-0.42,0.19-0.51l1.99-0.92
				c0.19-0.09,0.42,0,0.51,0.19c0.09,0.19,0,0.42-0.19,0.51l-1.99,0.92C202.53,27.51,202.47,27.52,202.42,27.52z"/>
			<path class="st4" d="M204.55,35.91c-0.05,0-0.1-0.01-0.15-0.03l-2.5-1.07c-0.19-0.08-0.28-0.31-0.2-0.5
				c0.08-0.19,0.31-0.28,0.5-0.2l2.5,1.07c0.19,0.08,0.28,0.31,0.2,0.5C204.84,35.83,204.7,35.91,204.55,35.91z"/>
			<path class="st4" d="M185.45,27.77c-0.05,0-0.1-0.01-0.15-0.03l-2.02-0.86c-0.19-0.08-0.28-0.31-0.2-0.5
				c0.08-0.19,0.31-0.28,0.5-0.2l2.02,0.86c0.19,0.08,0.28,0.31,0.2,0.5C185.74,27.68,185.6,27.77,185.45,27.77z"/>
		</g>
		<text transform="matrix(1 0 0 1 182.8951 56.0155)" class="st4 st18 st20">Artistas</text>
		<g>
			<g>
				<path class="st4" d="M239.74,43.08c-0.25,0-0.5-0.02-0.74-0.07c-0.01,0-0.01,0-0.02,0l-8.86-2.2c-0.2-0.05-0.33-0.26-0.28-0.46
					c0.05-0.2,0.26-0.33,0.46-0.28l8.85,2.2c0.4,0.07,0.8,0.07,1.19,0c1.93-0.36,6.53-1.22,7.66-1.37c0.16-0.02,0.32-0.07,0.47-0.15
					l5.22-3.33c0.01-0.01,0.02-0.01,0.03-0.02c0.3-0.16,0.44-0.53,0.3-0.82c-0.07-0.15-0.2-0.27-0.36-0.32
					c-0.16-0.05-0.33-0.04-0.48,0.04L248.01,39c0,0-0.01,0-0.01,0.01c-0.13,0.06-0.27,0.08-0.32,0.08c-0.06,0.01-0.14,0.01-0.23,0
					l-5.91-0.58c-0.59-0.06-1.01-0.59-0.95-1.17c0.06-0.58,0.59-1.01,1.17-0.95l2.04,0.21l1.84,0.19c0.22,0.02,0.44-0.04,0.61-0.19
					c0.17-0.14,0.27-0.35,0.29-0.57c0.03-0.43-0.31-0.82-0.76-0.86l-4.96-0.5c-0.09-0.01-0.19,0-0.28,0.02
					c-0.02,0-0.03,0.01-0.05,0.01c-0.77,0.09-3.13,1.5-4.4,2.26c-0.4,0.24-0.75,0.45-0.99,0.59c-0.1,0.05-0.21,0.06-0.31,0.03
					l-4.68-1.66c-0.2-0.07-0.3-0.29-0.23-0.48s0.29-0.3,0.48-0.23l4.52,1.6c0.22-0.13,0.51-0.3,0.83-0.49
					c1.97-1.18,3.81-2.25,4.68-2.36c0.17-0.04,0.34-0.05,0.52-0.03l4.96,0.5c0.85,0.09,1.49,0.83,1.44,1.67
					c-0.03,0.43-0.22,0.82-0.55,1.1c-0.33,0.28-0.75,0.41-1.17,0.36l-1.84-0.19l-2.04-0.21c-0.17-0.02-0.32,0.11-0.34,0.27
					c-0.02,0.17,0.11,0.32,0.27,0.34l5.91,0.58c0.02,0,0.05,0,0.07,0c0,0,0,0,0.01,0c0,0,0.01,0,0.01,0c0.02,0,0.05-0.01,0.06-0.01
					l5.15-2.71c0.34-0.17,0.72-0.2,1.07-0.08c0.36,0.12,0.64,0.37,0.8,0.71c0.31,0.66,0.03,1.46-0.62,1.81l-5.22,3.33
					c-0.01,0-0.01,0.01-0.02,0.01c-0.23,0.13-0.48,0.21-0.74,0.25c-1.14,0.16-6.12,1.09-7.62,1.37
					C240.24,43.06,239.99,43.08,239.74,43.08z"/>
			</g>
			<g>
				<path class="st4" d="M242.31,29.37c-1.31,0-2.38-1.07-2.38-2.38c0-1.31,1.07-2.38,2.38-2.38s2.38,1.07,2.38,2.38
					C244.69,28.31,243.62,29.37,242.31,29.37z M242.31,25.37c-0.89,0-1.62,0.73-1.62,1.62c0,0.89,0.73,1.62,1.62,1.62
					c0.89,0,1.62-0.73,1.62-1.62C243.93,26.1,243.2,25.37,242.31,25.37z"/>
				<path class="st4" d="M238.59,33.55c-0.21,0-0.38-0.17-0.38-0.38v-1.38c0-1.24,0.56-2.39,1.52-3.16l0.66-0.52
					c0.16-0.13,0.4-0.1,0.53,0.06c0.13,0.16,0.1,0.4-0.06,0.53l-0.66,0.52c-0.79,0.63-1.24,1.56-1.24,2.57v1.38
					C238.97,33.38,238.8,33.55,238.59,33.55z"/>
				<path class="st4" d="M245.9,33.55c-0.21,0-0.38-0.17-0.38-0.38v-1.38c0-1.01-0.45-1.94-1.24-2.57l-0.66-0.52
					c-0.16-0.13-0.19-0.37-0.06-0.53c0.13-0.16,0.37-0.19,0.53-0.06l0.66,0.52c0.97,0.77,1.52,1.92,1.52,3.16v1.38
					C246.28,33.38,246.11,33.55,245.9,33.55z"/>
			</g>
			<g>
				<path class="st4" d="M237.22,29.54c-1.03,0-1.87-0.84-1.87-1.87c0-1.03,0.84-1.87,1.87-1.87s1.87,0.84,1.87,1.87
					C239.1,28.7,238.26,29.54,237.22,29.54z M237.22,26.55c-0.61,0-1.11,0.5-1.11,1.11c0,0.61,0.5,1.11,1.11,1.11
					s1.11-0.5,1.11-1.11C238.34,27.05,237.84,26.55,237.22,26.55z"/>
				<path class="st4" d="M234.45,35.15c-0.21,0-0.38-0.17-0.38-0.38v-3.53c0-0.95,0.43-1.84,1.17-2.43l0.49-0.39
					c0.16-0.13,0.4-0.1,0.53,0.06c0.13,0.16,0.1,0.4-0.06,0.53l-0.49,0.39c-0.56,0.45-0.89,1.12-0.89,1.84v3.53
					C234.83,34.98,234.66,35.15,234.45,35.15z"/>
			</g>
			<g>
				<path class="st4" d="M247.45,29.54c-1.03,0-1.87-0.84-1.87-1.87c0-1.03,0.84-1.87,1.87-1.87c1.03,0,1.87,0.84,1.87,1.87
					C249.32,28.7,248.48,29.54,247.45,29.54z M247.45,26.55c-0.61,0-1.11,0.5-1.11,1.11c0,0.61,0.5,1.11,1.11,1.11
					c0.61,0,1.11-0.5,1.11-1.11C248.56,27.05,248.06,26.55,247.45,26.55z"/>
				<path class="st4" d="M250.13,35.15c-0.21,0-0.38-0.17-0.38-0.38v-3.53c0-0.72-0.32-1.39-0.89-1.84l-0.49-0.39
					c-0.16-0.13-0.19-0.37-0.06-0.53c0.13-0.16,0.37-0.19,0.53-0.06l0.49,0.39c0.75,0.59,1.17,1.48,1.17,2.43v3.53
					C250.5,34.98,250.34,35.15,250.13,35.15z"/>
			</g>
			<path class="st4" d="M242.25,21.49c-0.21,0-0.38-0.17-0.38-0.38v-1.46c0-0.21,0.17-0.38,0.38-0.38c0.21,0,0.38,0.17,0.38,0.38
				v1.46C242.63,21.32,242.46,21.49,242.25,21.49z"/>
			<path class="st4" d="M245.49,22.32c-0.05,0-0.11-0.01-0.16-0.04c-0.19-0.09-0.27-0.31-0.18-0.5l0.64-1.36
				c0.09-0.19,0.31-0.27,0.5-0.18c0.19,0.09,0.27,0.31,0.18,0.5l-0.64,1.36C245.77,22.24,245.63,22.32,245.49,22.32z"/>
			<path class="st4" d="M248,24.29c-0.12,0-0.24-0.06-0.31-0.16c-0.12-0.17-0.08-0.41,0.09-0.53l1.19-0.84
				c0.17-0.12,0.41-0.08,0.53,0.09c0.12,0.17,0.08,0.41-0.09,0.53l-1.19,0.84C248.15,24.27,248.07,24.29,248,24.29z"/>
			<path class="st4" d="M238.9,22.32c-0.14,0-0.28-0.08-0.34-0.22l-0.64-1.36c-0.09-0.19-0.01-0.41,0.18-0.5
				c0.19-0.09,0.41-0.01,0.5,0.18l0.64,1.36c0.09,0.19,0.01,0.41-0.18,0.5C239.01,22.31,238.96,22.32,238.9,22.32z"/>
			<path class="st4" d="M236.39,24.29c-0.08,0-0.15-0.02-0.22-0.07l-1.19-0.84c-0.17-0.12-0.21-0.36-0.09-0.53
				c0.12-0.17,0.36-0.21,0.53-0.09l1.19,0.84c0.17,0.12,0.21,0.36,0.09,0.53C236.63,24.23,236.51,24.29,236.39,24.29z"/>
		</g>
		<text transform="matrix(1 0 0 1 222.7615 56.0155)" class="st4 st18 st20">Comunidades</text>
		<g>
			<text transform="matrix(1 0 0 1 214.7682 39.7088)" class="st0 st23 st24">+</text>
		</g>
		<g>
			<text transform="matrix(1 0 0 1 40.8112 39.7088)" class="st0 st23 st24">+</text>
		</g>
		<g>
			<polyline class="st15" points="193.16,72.21 193.16,90.4 243.76,90.4 243.76,72.21 			"/>
			<line class="st15" x1="218.99" y1="90.4" x2="218.99" y2="99.17"/>
		</g>
		<g>
			<polyline class="st15" points="19.3,72.21 19.3,90.4 69.9,90.4 69.9,72.21 			"/>
			<line class="st15" x1="45.13" y1="90.4" x2="45.13" y2="99.17"/>
		</g>
		<g>
			<g>
				<path class="st4" d="M143.27,38.18c-2.2-3.49-5.93-5.92-10.25-6.35c-0.13,0.28-0.27,0.55-0.41,0.82
					c0.18,0.28,0.37,0.55,0.57,0.81c-0.33-0.04-0.66-0.07-1-0.08c-0.16,0.25-0.33,0.5-0.5,0.74c2.41,3.32,6.28,5.52,10.67,5.66
					c0.15,0.01,0.3,0.01,0.45,0.01c0.44,0,0.88-0.02,1.31-0.06C143.86,39.19,143.58,38.67,143.27,38.18z M133.19,33.46
					c3.28,0.42,6.15,2.14,8.07,4.64C137.98,37.68,135.11,35.95,133.19,33.46z"/>
				<path class="st4" d="M131.68,34.12c-2.43,3.34-6.32,5.54-10.73,5.66c-0.13,0-0.26,0.01-0.38,0.01c-0.46,0-0.92-0.02-1.37-0.07
					c0.25-0.53,0.53-1.05,0.84-1.54c2.21-3.51,5.96-5.94,10.3-6.35c0.13,0.28,0.27,0.55,0.41,0.82c-0.18,0.28-0.37,0.54-0.57,0.8
					c-3.31,0.4-6.21,2.14-8.15,4.65c3.31-0.4,6.21-2.14,8.15-4.65c0.33-0.04,0.66-0.07,0.99-0.08
					C131.33,33.62,131.5,33.87,131.68,34.12z"/>
				<path class="st4" d="M132.61,19.47c-0.28-0.51-0.59-1-0.93-1.47c-0.34,0.47-0.65,0.96-0.93,1.47c-1.07,1.95-1.68,4.2-1.68,6.59
					c0,2.06,0.45,4.01,1.27,5.77c0.31-0.03,0.62-0.05,0.93-0.06c0.15-0.28,0.29-0.56,0.41-0.85c0.13,0.29,0.27,0.57,0.41,0.85
					c0.31,0.01,0.62,0.03,0.93,0.06c0.82-1.75,1.27-3.71,1.27-5.77C134.29,23.67,133.68,21.43,132.61,19.47z M131.68,30.92
					c-0.65-1.49-1.02-3.13-1.02-4.86c0-1.73,0.36-3.37,1.02-4.86c0.65,1.49,1.02,3.13,1.02,4.86
					C132.69,27.79,132.33,29.43,131.68,30.92z"/>
			</g>
			<g>
				<circle class="st4" cx="130.34" cy="37.56" r="0.84"/>
				<circle class="st4" cx="132.96" cy="37.56" r="0.84"/>
			</g>
			<g>
				<circle class="st4" cx="135.39" cy="28.79" r="0.84"/>
				<circle class="st4" cx="136.68" cy="31.07" r="0.84"/>
			</g>
			<g>
				<circle class="st4" cx="127.83" cy="28.79" r="0.84"/>
				<circle class="st4" cx="126.54" cy="31.07" r="0.84"/>
			</g>
		</g>
		<text transform="matrix(1 0 0 1 113.7775 51.0154)" class="st4 st18 st20">Impulsamos</text>
		<g>
			<g>
				<path class="st16" d="M161.55,50V20.1c0-1.43-0.76-2.75-2-3.47L133.65,1.68c-1.24-0.72-2.77-0.72-4,0l-25.89,14.95
					c-1.24,0.72-2,2.04-2,3.47V50c0,1.43,0.76,2.75,2,3.47l25.89,14.95c1.24,0.72,2.77,0.72,4,0l25.89-14.95
					C160.78,52.75,161.55,51.43,161.55,50z"/>
				<g>
					<path class="st16" d="M142.22,66.76l21.14-21.14c1.01-1.01,1.41-2.49,1.04-3.87l-7.74-28.88c-0.37-1.38-1.45-2.46-2.83-2.83
						L124.95,2.3c-1.38-0.37-2.86,0.02-3.87,1.04L99.94,24.48c-1.01,1.01-1.41,2.49-1.04,3.87l7.74,28.88
						c0.37,1.38,1.45,2.46,2.83,2.83l28.88,7.74C139.73,68.17,141.21,67.77,142.22,66.76z"/>
					<path class="st16" d="M121.08,66.76L99.94,45.62c-1.01-1.01-1.41-2.49-1.04-3.87l7.74-28.88c0.37-1.38,1.45-2.46,2.83-2.83
						l28.88-7.74c1.38-0.37,2.86,0.02,3.87,1.04l21.14,21.14c1.01,1.01,1.41,2.49,1.04,3.87l-7.74,28.88
						c-0.37,1.38-1.45,2.46-2.83,2.83l-28.88,7.74C123.57,68.17,122.09,67.77,121.08,66.76z"/>
				</g>
			</g>
			<line class="st16" x1="162.6" y1="35.05" x2="175.71" y2="35.05"/>
			<line class="st16" x1="87.59" y1="35.05" x2="100.57" y2="35.05"/>
		</g>
		<g>
			<text transform="matrix(1 0 0 1 203.9404 21.7838)" class="st4 st23 st25">X</text>
		</g>
		<line class="st15" x1="87.59" y1="127.2" x2="175.71" y2="127.2"/>
		<polyline class="st17" points="171.11,122.6 175.71,127.2 171.11,131.8 		"/>
		<polyline class="st17" points="92.19,122.6 87.59,127.2 92.19,131.8 		"/>
	</g>
</g>
<g id="Space">
</g>
<g id="Dorado" class="st38">
</g>
<g id="AUREA" class="st38">
</g>
<g id="Grid">
</g>
</svg>
